<svg width="23" height="28" viewBox="0 0 23 28" fill="none" xmlns="http://www.w3.org/2000/svg">
    <g filter="url(#filter0_b_77_319)">
        <g filter="url(#filter1_b_77_319)">
            <path d="M10.9453 13.3359C12.7011 13.3359 14.2214 12.7061 15.4636 11.4637C16.7058 10.2214 17.3355 8.70148 17.3355 6.9455C17.3355 5.19012 16.7058 3.66996 15.4634 2.42731C14.221 1.18527 12.7009 0.555542 10.9453 0.555542C9.18941 0.555542 7.66949 1.18527 6.42729 2.42751C5.18508 3.66976 4.55518 5.18992 4.55518 6.9455C4.55518 8.70148 5.18508 10.2216 6.42749 11.4639C7.6699 12.7059 9.19001 13.3359 10.9453 13.3359V13.3359Z" fill="url(#paint0_linear_77_319)"/>
        </g>
        <g filter="url(#filter2_b_77_319)">
            <path d="M22.0905 20.9639C22.0546 20.444 21.9821 19.8769 21.8754 19.2781C21.7677 18.6748 21.629 18.1044 21.4629 17.5831C21.2914 17.0443 21.0581 16.5122 20.7698 16.0023C20.4705 15.4731 20.1189 15.0123 19.7244 14.633C19.312 14.2363 18.8069 13.9174 18.2229 13.6847C17.6409 13.4533 16.996 13.336 16.3061 13.336C16.0351 13.336 15.7731 13.4478 15.267 13.7789C14.9556 13.9831 14.5913 14.2192 14.1847 14.4804C13.837 14.7031 13.366 14.9117 12.7842 15.1006C12.2166 15.2852 11.6403 15.3789 11.0715 15.3789C10.5026 15.3789 9.92652 15.2852 9.3583 15.1006C8.77713 14.9119 8.30612 14.7033 7.95883 14.4806C7.55606 14.2219 7.19156 13.9858 6.87546 13.7787C6.37002 13.4476 6.10779 13.3358 5.83684 13.3358C5.14672 13.3358 4.50197 13.4533 3.92019 13.6849C3.33658 13.9172 2.83135 14.2361 2.41845 14.6332C2.02418 15.0127 1.67244 15.4733 1.37355 16.0023C1.0854 16.5122 0.852117 17.0441 0.680398 17.5833C0.514551 18.1046 0.375839 18.6748 0.268109 19.2781C0.161392 19.8761 0.0888972 20.4434 0.0530549 20.9645C0.0178199 21.475 0 22.0049 0 22.54C0 23.9327 0.440436 25.0602 1.30896 25.8917C2.16674 26.7122 3.30175 27.1284 4.68199 27.1284H17.4621C18.8424 27.1284 19.977 26.7124 20.835 25.8917C21.7037 25.0608 22.1441 23.9331 22.1441 22.5398C22.1439 22.0022 22.1259 21.472 22.0905 20.9639Z" fill="url(#paint1_linear_77_319)"/>
        </g>
    </g>
    <defs>
        <filter id="filter0_b_77_319" x="-4.87343" y="-4.31789" width="31.8909" height="36.3197" filterUnits="userSpaceOnUse" color-interpolation-filters="sRGB">
            <feFlood flood-opacity="0" result="BackgroundImageFix"/>
            <feGaussianBlur in="BackgroundImageFix" stdDeviation="2.43672"/>
            <feComposite in2="SourceAlpha" operator="in" result="effect1_backgroundBlur_77_319"/>
            <feBlend mode="normal" in="SourceGraphic" in2="effect1_backgroundBlur_77_319" result="shape"/>
        </filter>
        <filter id="filter1_b_77_319" x="-0.318257" y="-4.31789" width="22.5271" height="22.5271" filterUnits="userSpaceOnUse" color-interpolation-filters="sRGB">
            <feFlood flood-opacity="0" result="BackgroundImageFix"/>
            <feGaussianBlur in="BackgroundImageFix" stdDeviation="2.43672"/>
            <feComposite in2="SourceAlpha" operator="in" result="effect1_backgroundBlur_77_319"/>
            <feBlend mode="normal" in="SourceGraphic" in2="effect1_backgroundBlur_77_319" result="shape"/>
        </filter>
        <filter id="filter2_b_77_319" x="-4.87343" y="8.46238" width="31.8909" height="23.5395" filterUnits="userSpaceOnUse" color-interpolation-filters="sRGB">
            <feFlood flood-opacity="0" result="BackgroundImageFix"/>
            <feGaussianBlur in="BackgroundImageFix" stdDeviation="2.43672"/>
            <feComposite in2="SourceAlpha" operator="in" result="effect1_backgroundBlur_77_319"/>
            <feBlend mode="normal" in="SourceGraphic" in2="effect1_backgroundBlur_77_319" result="shape"/>
        </filter>
        <linearGradient id="paint0_linear_77_319" x1="11.8862" y1="7.80152" x2="0.656284" y2="13.2618" gradientUnits="userSpaceOnUse">
            <stop stop-color="#FF8F71"/>
            <stop offset="1" stop-color="#EF2D1A"/>
        </linearGradient>
        <linearGradient id="paint1_linear_77_319" x1="12.7023" y1="21.1557" x2="-2.24617" y2="32.825" gradientUnits="userSpaceOnUse">
            <stop stop-color="#FF8F71"/>
            <stop offset="1" stop-color="#EF2D1A"/>
        </linearGradient>
    </defs>
</svg>
